<svg xmlns="http://www.w3.org/2000/svg" width="45.327" height="53.229" viewBox="0 0 45.327 53.229">
  <g id="_104471_android_icon" data-name="104471_android_icon" transform="translate(-7.021 -4.374)">
    <path id="Path_917" data-name="Path 917" d="M36.743,8.667l.594-.838L37.919,7l1.312-1.856a.481.481,0,0,0-.144-.688.546.546,0,0,0-.731.138L36.95,6.586l-.591.836-.6.848a18.586,18.586,0,0,0-12.515,0l-.6-.848-.591-.836L20.648,4.6a.547.547,0,0,0-.73-.138.48.48,0,0,0-.145.688L21.083,7l.585.827.594.838c-4.465,1.961-7.485,5.677-7.485,9.93H44.228C44.228,14.344,41.208,10.628,36.743,8.667ZM23.192,14.628a1.49,1.49,0,1,1,1.577-1.488A1.535,1.535,0,0,1,23.192,14.628Zm12.62,0a1.49,1.49,0,1,1,1.579-1.488A1.534,1.534,0,0,1,35.812,14.628Z" transform="translate(0.183)" fill="#fff"/>
    <path id="Path_918" data-name="Path 918" d="M15,20.208h-.227V42.039a3.243,3.243,0,0,0,3.33,3.143h2.4a2.817,2.817,0,0,0-.126.826v6.286a3.161,3.161,0,0,0,6.312,0V46.007a2.9,2.9,0,0,0-.125-.826h5.859a2.816,2.816,0,0,0-.125.826v6.286a3.161,3.161,0,0,0,6.311,0V46.007a2.821,2.821,0,0,0-.125-.826h2.4a3.244,3.244,0,0,0,3.331-3.143V20.208H15Z" transform="translate(0.183 2.332)" fill="#fff"/>
    <path id="Path_919" data-name="Path 919" d="M10,20.208a2.976,2.976,0,0,0-2.977,2.978V35.919a2.977,2.977,0,1,0,5.953,0V23.185A2.976,2.976,0,0,0,10,20.208Z" transform="translate(0 1.348)" fill="#fff"/>
    <path id="Path_920" data-name="Path 920" d="M46.836,20.208a2.976,2.976,0,0,0-2.977,2.978V35.919a2.976,2.976,0,1,0,5.951,0V23.185A2.975,2.975,0,0,0,46.836,20.208Z" transform="translate(2.538 1.348)" fill="#fff"/>
  </g>
</svg>
