<svg xmlns="http://www.w3.org/2000/svg" width="54" height="42" viewBox="0 0 54 42">
  <path id="_367634_apple_mac_macintosh_icon" data-name="367634_apple_mac_macintosh_icon" d="M64.333,120.667c0-6.154,2.492-13.965,6.5-20.383a31.745,31.745,0,0,1,6.424-7.617H52.667A6.666,6.666,0,0,0,46,99.334V128a6.666,6.666,0,0,0,6.667,6.667H76.333V122.334h-12Zm-4.333-10a2,2,0,1,1-4,0v-6a2,2,0,1,1,4,0Zm33.333-18H83.844C76.216,94.954,68.509,108.635,67.731,119H79.667v15.667H93.333A6.666,6.666,0,0,0,100,128V99.334A6.666,6.666,0,0,0,93.333,92.667Zm-3.333,18a2,2,0,1,1-4,0v-6a2,2,0,0,1,4,0Z" transform="translate(-46 -92.667)" fill="#fff"/>
</svg>
